<svg width="4253" height="3898" xmlns="http://www.w3.org/2000/svg" xmlns:xlink="http://www.w3.org/1999/xlink" xml:space="preserve" overflow="hidden"><defs><clipPath id="clip0"><rect x="-303" y="0" width="4253" height="3898"/></clipPath></defs><g clip-path="url(#clip0)" transform="translate(303 0)"><path d="M1.00003 649.513C1.00003 290.797 291.797-1.24067e-13 650.514-2.48134e-13L3248.49 0C3607.2-2.48134e-13 3898 290.797 3898 649.513L3898 3248.49C3898 3607.2 3607.2 3898 3248.49 3898L650.514 3898C291.797 3898 1.00003 3607.2 1.00003 3248.49Z" fill="#FEFDFB" fill-rule="evenodd"/><path d="M650.59 0 1319.43 0 3650 3758.67 3612.06 3787.04C3508.39 3857.1 3383.4 3898 3248.87 3898L650.59 3898C291.831 3898 1.00003 3607.13 1.00003 3248.32L1.00003 649.68C1.00003 290.872 291.831 0 650.59 0Z" fill="#BCDD86" fill-rule="evenodd"/><path d="M650.629 0 1020.94 0 3423 3873.74 3379.99 3884.8C3337.7 3893.46 3293.91 3898 3249.07 3898L650.629 3898C291.849 3898 1.00003 3607.13 1.00003 3248.32L1.00003 649.68C1.00003 290.872 291.849 0 650.629 0Z" fill="#70C174" fill-rule="evenodd"/><text font-family="Moonrising,Moonrising_MSFontService,sans-serif" font-weight="400" font-size="898" transform="matrix(1 0 0 1 236.692 1729)">TW <tspan font-size="898" x="0" y="1078">TYRE</tspan></text><path d="M2615 2465.5C2615 2260.88 2780.88 2095 2985.5 2095 3190.12 2095 3356 2260.88 3356 2465.5 3356 2670.12 3190.12 2836 2985.5 2836 2780.88 2836 2615 2670.12 2615 2465.5ZM2730.17 2465.5C2730.17 2606.52 2844.48 2720.83 2985.5 2720.83 3126.52 2720.83 3240.83 2606.52 3240.83 2465.5 3240.83 2324.48 3126.52 2210.17 2985.5 2210.17 2844.48 2210.17 2730.17 2324.48 2730.17 2465.5Z" fill="#D9D9D9" fill-rule="evenodd"/><path d="M1939 1386.5C1939 1181.88 2104.88 1016 2309.5 1016 2514.12 1016 2680 1181.88 2680 1386.5 2680 1591.12 2514.12 1757 2309.5 1757 2104.88 1757 1939 1591.12 1939 1386.5ZM2054.17 1386.5C2054.17 1527.52 2168.48 1641.83 2309.5 1641.83 2450.52 1641.83 2564.83 1527.52 2564.83 1386.5 2564.83 1245.48 2450.52 1131.17 2309.5 1131.17 2168.48 1131.17 2054.17 1245.48 2054.17 1386.5Z" fill-rule="evenodd"/><path d="M2985.87 2095C3190.29 2095 3356 2260.88 3356 2465.5 3356 2670.12 3190.29 2836 2985.87 2836 2934.77 2836 2886.09 2825.63 2841.8 2806.88L2829 2799.93 2829 2665.45 2843.26 2677.23C2883.97 2704.76 2933.05 2720.83 2985.87 2720.83 3126.75 2720.83 3240.95 2606.52 3240.95 2465.5 3240.95 2324.48 3126.75 2210.17 2985.87 2210.17 2933.05 2210.17 2883.97 2226.24 2843.26 2253.77L2829 2265.55 2829 2131.07 2841.8 2124.12C2886.09 2105.37 2934.77 2095 2985.87 2095Z" fill-rule="evenodd"/><rect x="2829" y="2142" width="115" height="603"/><path d="M2662.93 1826.69C2672.08 1841.58 2667.44 1861.06 2652.56 1870.22L2652.56 1870.22C2637.68 1879.37 2618.19 1874.73 2609.03 1859.85L2328.75 1404.23C2319.59 1389.35 2324.24 1369.86 2339.12 1360.71L2339.12 1360.71C2354 1351.55 2373.49 1356.2 2382.64 1371.08Z" fill="#686868" fill-rule="evenodd"/><path d="M2900.34 1379.83C2917.78 1380.8 2931.14 1395.73 2930.17 1413.18L2930.17 1413.18C2929.2 1430.62 2914.27 1443.98 2896.82 1443.01L2362.72 1413.3C2345.28 1412.33 2331.92 1397.4 2332.89 1379.95L2332.89 1379.95C2333.86 1362.51 2348.79 1349.15 2366.24 1350.12Z" fill="#686868" fill-rule="evenodd"/><path d="M3249.9 1847.5C3267.35 1848.47 3280.7 1863.4 3279.73 1880.85L3279.73 1880.85C3278.76 1898.29 3263.83 1911.65 3246.39 1910.68L2637.72 1876.82C2620.27 1875.85 2606.92 1860.92 2607.89 1843.48L2607.89 1843.48C2608.86 1826.03 2623.79 1812.67 2641.23 1813.64Z" fill="#686868" fill-rule="evenodd"/><path d="M3289.34 1850.26C3300.19 1863.95 3297.88 1883.85 3284.19 1894.7L3284.19 1894.7C3270.49 1905.55 3250.59 1903.25 3239.74 1889.55L2877.69 1432.61C2866.84 1418.91 2869.14 1399.02 2882.84 1388.16L2882.84 1388.16C2896.54 1377.31 2916.43 1379.62 2927.29 1393.31Z" fill="#686868" fill-rule="evenodd"/><path d="M3041.98 2455.26C3034.04 2470.83 3014.99 2477.01 2999.42 2469.07L2999.42 2469.07C2983.86 2461.13 2977.68 2442.08 2985.61 2426.51L3362.13 1688.3C3370.07 1672.74 3389.13 1666.55 3404.69 1674.49L3404.69 1674.49C3420.26 1682.43 3426.44 1701.49 3418.5 1717.05Z" fill="#686868" fill-rule="evenodd"/><path d="M2958.71 1281.31C2968.46 1266.81 2988.12 1262.96 3002.62 1272.71L3002.62 1272.71C3017.12 1282.46 3020.97 1302.12 3011.22 1316.62L2671.04 1822.49C2661.29 1836.99 2641.63 1840.84 2627.13 1831.09L2627.13 1831.09C2612.64 1821.34 2608.79 1801.68 2618.54 1787.18Z" fill="#686868" fill-rule="evenodd"/><path d="M3072.13 1294.39C3085.08 1306.12 3086.07 1326.13 3074.33 1339.08L3074.33 1339.08C3062.6 1352.02 3042.6 1353.01 3029.65 1341.28L2935.46 1255.96C2922.51 1244.23 2921.52 1224.22 2933.25 1211.27L2933.25 1211.27C2944.98 1198.32 2964.99 1197.33 2977.94 1209.06Z" fill="#686868" fill-rule="evenodd"/><path d="M3526.65 1717.4C3542.95 1723.7 3551.04 1742.02 3544.74 1758.32L3544.74 1758.32C3538.43 1774.62 3520.11 1782.72 3503.82 1776.41L3385.29 1730.55C3369 1724.24 3360.9 1705.92 3367.2 1689.62L3367.2 1689.62C3373.51 1673.33 3391.83 1665.23 3408.13 1671.54Z" fill="#686868" fill-rule="evenodd"/></g></svg>