<svg width="34" height="34" viewBox="0 0 34 34" fill="none" xmlns="http://www.w3.org/2000/svg">
<path d="M14.1667 25.5C16.6813 25.4995 19.1233 24.6577 21.1041 23.1087L27.3318 29.3364L29.335 27.3332L23.1073 21.1055C24.6571 19.1246 25.4994 16.6819 25.5 14.1667C25.5 7.91779 20.4156 2.83337 14.1667 2.83337C7.91779 2.83337 2.83337 7.91779 2.83337 14.1667C2.83337 20.4156 7.91779 25.5 14.1667 25.5ZM14.1667 5.66671C18.8545 5.66671 22.6667 9.47896 22.6667 14.1667C22.6667 18.8545 18.8545 22.6667 14.1667 22.6667C9.47896 22.6667 5.66671 18.8545 5.66671 14.1667C5.66671 9.47896 9.47896 5.66671 14.1667 5.66671Z" fill="#696868"/>
<path d="M16.167 12.1635C16.704 12.7018 17 13.413 17 14.1667H19.8334C19.8346 13.4221 19.6883 12.6847 19.4028 11.997C19.1173 11.3094 18.6984 10.6851 18.1702 10.1603C16.0254 8.01833 12.3066 8.01833 10.1632 10.1603L12.1635 12.1663C13.2402 11.0925 15.096 11.0953 16.167 12.1635Z" fill="#696868"/>
</svg>
